<?xml version="1.0" encoding="UTF-8"?>
<svg width="75px" height="90px" viewBox="0 0 75 90" version="1.1" xmlns="http://www.w3.org/2000/svg" xmlns:xlink="http://www.w3.org/1999/xlink">
    <!-- Generator: Sketch 45.2 (43514) - http://www.bohemiancoding.com/sketch -->
    <title>[autoentry]ico_submit-documents_gradient</title>
    <desc>Created with Sketch.</desc>
    <defs>
        <linearGradient x1="19.0350244%" y1="76.2152778%" x2="77.5149571%" y2="17.1937004%" id="linearGradient-1">
            <stop stop-color="#1A66FF" offset="0%"></stop>
            <stop stop-color="#EB2150" offset="100%"></stop>
        </linearGradient>
    </defs>
    <g id="assets" stroke="none" stroke-width="1" fill="none" fill-rule="evenodd">
        <g id="Assets" transform="translate(-1078.000000, -2623.000000)" fill="url(#linearGradient-1)">
            <path d="M1090,2635 C1089.1705,2635 1088.5,2634.328 1088.5,2633.5 C1088.5,2632.672 1089.1705,2632 1090,2632 L1106.5,2632 C1107.3295,2632 1108,2632.672 1108,2633.5 C1108,2634.328 1107.3295,2635 1106.5,2635 L1090,2635 Z M1124.5,2647 C1124.5,2647.828 1123.8295,2648.5 1123,2648.5 L1090,2648.5 C1089.1705,2648.5 1088.5,2647.828 1088.5,2647 C1088.5,2646.172 1089.1705,2645.5 1090,2645.5 L1123,2645.5 C1123.8295,2645.5 1124.5,2646.172 1124.5,2647 Z M1115.5,2656 C1115.5,2656.828 1114.8295,2657.5 1114,2657.5 L1090,2657.5 C1089.1705,2657.5 1088.5,2656.828 1088.5,2656 C1088.5,2655.172 1089.1705,2654.5 1090,2654.5 L1114,2654.5 C1114.8295,2654.5 1115.5,2655.172 1115.5,2656 Z M1108,2665 C1108,2665.828 1107.3295,2666.5 1106.5,2666.5 L1090,2666.5 C1089.1705,2666.5 1088.5,2665.828 1088.5,2665 C1088.5,2664.172 1089.1705,2663.5 1090,2663.5 L1106.5,2663.5 C1107.3295,2663.5 1108,2664.172 1108,2665 Z M1100.5,2674 C1100.5,2674.828 1099.8295,2675.5 1099,2675.5 L1090,2675.5 C1089.1705,2675.5 1088.5,2674.828 1088.5,2674 C1088.5,2673.172 1089.1705,2672.5 1090,2672.5 L1099,2672.5 C1099.8295,2672.5 1100.5,2673.172 1100.5,2674 Z M1090,2702.5 C1090,2701.672 1090.672,2701 1091.5,2701 C1092.328,2701 1093,2701.672 1093,2702.5 C1093,2703.328 1092.328,2704 1091.5,2704 C1090.672,2704 1090,2703.328 1090,2702.5 Z M1152.6928,2688.23455 C1152.6928,2696.40805 1145.5003,2703.14455 1138.0003,2703.90805 L1138.0003,2709.91405 C1138.0003,2711.61505 1137.2563,2712.99955 1135.5853,2712.99955 L1081.0288,2712.99955 C1079.3593,2712.99955 1078.0003,2711.70205 1078.0003,2709.99955 L1078.0003,2626.08655 C1078.0003,2624.38405 1079.3593,2622.99955 1081.0288,2622.99955 L1135.5853,2622.99955 C1137.1438,2622.99955 1138.0003,2624.28355 1138.0003,2625.64105 L1138.0003,2662.12105 C1138.0003,2662.94905 1137.3373,2663.62105 1136.5003,2663.62105 C1135.6618,2663.62105 1135.0003,2662.94905 1135.0003,2662.12105 L1135.0003,2626.07005 L1081.0003,2625.99955 L1081.0003,2709.99955 L1135.0003,2709.99955 L1135.0003,2703.90955 C1127.5003,2703.15655 1120.8073,2696.41705 1120.8073,2688.23455 C1120.8073,2679.54955 1128.1618,2672.48455 1136.9353,2672.48455 C1145.7088,2672.48455 1152.6928,2679.54955 1152.6928,2688.23455 Z M1136.4898,2700.98455 C1143.5203,2700.98455 1149.2398,2695.26505 1149.2398,2688.23455 C1149.2398,2681.20405 1143.5203,2675.48455 1136.4898,2675.48455 C1129.4593,2675.48455 1123.7398,2681.20405 1123.7398,2688.23455 C1123.7398,2695.26505 1129.4593,2700.98455 1136.4898,2700.98455 Z M1137.56185,2680.4407 L1143.56035,2686.4392 C1144.14685,2687.0257 1144.14685,2687.9752 1143.56035,2688.5602 C1143.26785,2688.8542 1142.88385,2688.9997 1142.49985,2688.9997 C1142.11585,2688.9997 1141.73185,2688.8542 1141.43935,2688.5602 L1137.99985,2685.1207 L1137.99985,2694.9997 C1137.99985,2695.8277 1137.32935,2696.4997 1136.49985,2696.4997 C1135.67035,2696.4997 1134.99985,2695.8277 1134.99985,2694.9997 L1134.99985,2685.1207 L1131.56035,2688.5602 C1130.97535,2689.1467 1130.02585,2689.1467 1129.43935,2688.5602 C1128.85285,2687.9752 1128.85285,2687.0257 1129.43935,2686.4392 L1135.43785,2680.4407 C1135.57735,2680.3012 1135.74235,2680.1917 1135.92685,2680.1152 C1136.29285,2679.9637 1136.70685,2679.9637 1137.07285,2680.1152 C1137.25735,2680.1917 1137.42385,2680.3012 1137.56185,2680.4407 Z" id="[autoentry]ico_submit-documents_gradient"></path>
        </g>
    </g>
</svg>