<?xml version="1.0" encoding="UTF-8"?>
<svg width="96px" height="93px" viewBox="0 0 96 93" version="1.1" xmlns="http://www.w3.org/2000/svg" xmlns:xlink="http://www.w3.org/1999/xlink">
    <!-- Generator: Sketch 45.2 (43514) - http://www.bohemiancoding.com/sketch -->
    <title>[autoentry]ico_pricing_gradient</title>
    <desc>Created with Sketch.</desc>
    <defs>
        <linearGradient x1="19.0350244%" y1="76.2152778%" x2="77.5149571%" y2="17.1937004%" id="linearGradient-1">
            <stop stop-color="#1A66FF" offset="0%"></stop>
            <stop stop-color="#EB2150" offset="100%"></stop>
        </linearGradient>
    </defs>
    <g id="assets" stroke="none" stroke-width="1" fill="none" fill-rule="evenodd">
        <g id="Assets" transform="translate(-1468.000000, -2426.000000)" fill="url(#linearGradient-1)">
            <path d="M1512.9406,2444.9009 C1512.9406,2443.1384 1514.2396,2441.6639 1516.0006,2441.1989 L1516.0006,2448.2984 C1513.3441,2447.2154 1512.9406,2445.9389 1512.9406,2444.9009 M1521.3781,2455.6694 C1521.3781,2457.1964 1520.4031,2458.5059 1519.0006,2459.1359 L1519.0006,2452.5779 C1521.0421,2453.5889 1521.3781,2454.7274 1521.3781,2455.6694 M1512.9406,2455.6694 C1512.9406,2454.8414 1512.2686,2454.1694 1511.4406,2454.1694 C1510.6126,2454.1694 1509.9406,2454.8414 1509.9406,2455.6694 C1509.9406,2459.0804 1512.5716,2461.8959 1516.0006,2462.4284 L1516.0006,2464.9994 C1516.0006,2465.8289 1516.6711,2466.4994 1517.5006,2466.4994 C1518.3286,2466.4994 1519.0006,2465.8289 1519.0006,2464.9994 L1519.0006,2462.2859 C1522.0861,2461.5059 1524.3781,2458.8494 1524.3781,2455.6694 C1524.3781,2452.7969 1522.5646,2450.6684 1519.0006,2449.3214 L1519.0006,2441.4359 C1520.4031,2442.0644 1521.3781,2443.3754 1521.3781,2444.9009 C1521.3781,2445.7289 1522.0501,2446.4009 1522.8781,2446.4009 C1523.7076,2446.4009 1524.3781,2445.7289 1524.3781,2444.9009 C1524.3781,2441.7224 1522.0861,2439.0659 1519.0006,2438.2859 L1519.0006,2436.4994 C1519.0006,2435.6714 1518.3286,2434.9994 1517.5006,2434.9994 C1516.6711,2434.9994 1516.0006,2435.6714 1516.0006,2436.4994 L1516.0006,2438.1434 C1512.5716,2438.6744 1509.9406,2441.4914 1509.9406,2444.9009 C1509.9406,2447.9474 1511.9956,2450.1494 1516.0006,2451.4784 L1516.0006,2459.3729 C1514.2396,2458.9064 1512.9406,2457.4319 1512.9406,2455.6694 M1555,2506.4789 L1555,2500.4654 C1557.457,2498.6114 1559.494,2496.5219 1561,2494.2509 L1561,2494.3004 C1561,2498.8109 1558.7845,2503.0049 1555,2506.4789 L1555,2506.4789 Z M1493.1355,2500.2674 C1494.712,2500.6424 1496.335,2500.9514 1498,2501.1839 L1498,2506.5419 C1495.885,2504.6504 1494.2455,2502.5339 1493.1355,2500.2674 L1493.1355,2500.2674 Z M1471.0195,2476.9949 C1472.821,2479.7009 1475.374,2482.1519 1478.5,2484.2459 L1478.5,2490.2699 C1473.958,2486.6009 1471.189,2482.0004 1471.0195,2476.9949 L1471.0195,2476.9949 Z M1483.0075,2459.4119 C1484.5135,2461.6634 1486.546,2463.7349 1489,2465.5724 L1489,2471.7224 C1485.268,2468.2079 1483.0675,2463.9719 1483.0075,2459.4119 L1483.0075,2459.4119 Z M1517.5,2428.9994 C1536.523,2428.9994 1552,2438.4209 1552,2449.9994 C1552,2461.5794 1536.523,2470.9994 1517.5,2470.9994 C1498.477,2470.9994 1483,2461.5794 1483,2449.9994 C1483,2438.4209 1498.477,2428.9994 1517.5,2428.9994 L1517.5,2428.9994 Z M1546,2471.9459 L1546,2465.5724 C1548.457,2463.7334 1550.494,2461.6574 1552,2459.4014 L1552,2459.7329 C1552,2464.2584 1549.783,2468.4644 1546,2471.9459 L1546,2471.9459 Z M1534,2471.5454 C1537.303,2470.5059 1540.33,2469.1634 1543,2467.5749 L1543,2473.9994 C1543,2474.1029 1543.039,2474.1944 1543.0585,2474.2919 C1540.4695,2476.0889 1537.408,2477.6129 1534,2478.7844 L1534,2471.5454 Z M1503.976,2472.3779 C1507.732,2473.3124 1511.779,2473.8689 1516.0045,2473.9754 C1516.0045,2473.9844 1516,2473.9919 1516,2473.9994 L1516,2481.4079 C1511.758,2481.2909 1507.7125,2480.6804 1504,2479.6604 L1504,2472.4994 C1504,2472.4574 1503.979,2472.4199 1503.976,2472.3779 L1503.976,2472.3779 Z M1501.3015,2471.6429 C1501.126,2471.8889 1501,2472.1739 1501,2472.4994 L1501,2478.7229 C1497.6175,2477.5319 1494.577,2475.9869 1492,2474.1659 L1492,2467.5749 C1494.751,2469.2114 1497.8815,2470.5899 1501.3015,2471.6429 L1501.3015,2471.6429 Z M1519,2481.4079 L1519,2473.9994 C1519,2473.9919 1518.9955,2473.9844 1518.9955,2473.9754 C1523.212,2473.8689 1527.25,2473.3139 1531,2472.3839 L1531,2479.7009 C1527.2875,2480.6969 1523.242,2481.2939 1519,2481.4079 L1519,2481.4079 Z M1534,2489.5844 L1534,2483.5739 C1535.131,2482.7534 1536.19,2481.8819 1537.15,2480.9564 C1537.183,2480.9234 1537.195,2480.8814 1537.225,2480.8469 C1538.2525,2480.4359 1539.247,2479.9919 1540.204,2479.5194 C1539.517,2483.2409 1537.318,2486.6759 1534,2489.5844 L1534,2489.5844 Z M1542.904,2506.5239 C1546.2445,2505.4664 1549.3045,2504.0999 1552,2502.4829 L1552,2508.8609 C1549.423,2510.6369 1546.3825,2512.1444 1543,2513.3114 L1543,2506.9994 C1543,2506.8314 1542.955,2506.6754 1542.904,2506.5239 L1542.904,2506.5239 Z M1528,2508.9824 C1532.2165,2508.8594 1536.2515,2508.2879 1540,2507.3444 L1540,2514.2294 C1536.2875,2515.2329 1532.2435,2515.8419 1528,2515.9724 L1528,2508.9824 Z M1513,2507.4584 C1516.801,2508.3689 1520.839,2508.8834 1525,2508.9704 L1525,2515.9619 C1520.8045,2515.8584 1516.756,2515.2539 1513,2514.2294 L1513,2507.4584 Z M1501,2502.7679 C1503.745,2504.3594 1506.793,2505.6629 1510.069,2506.6604 C1510.042,2506.7714 1510,2506.8794 1510,2506.9994 L1510,2513.3024 C1506.649,2512.1369 1503.6085,2510.6309 1501,2508.8504 L1501,2502.7679 Z M1522,2489.3699 C1525.264,2488.3739 1528.2985,2487.0854 1531,2485.5239 L1531,2491.8689 C1528.405,2493.5924 1525.369,2495.0534 1522,2496.1754 L1522,2489.3699 Z M1519.108,2497.0364 C1515.3595,2498.0189 1511.2765,2498.5979 1507,2498.6954 L1507,2491.7009 C1511.1625,2491.6124 1515.2065,2491.0949 1519,2490.1859 L1519,2496.4994 C1519,2496.6899 1519.0435,2496.8684 1519.108,2497.0364 L1519.108,2497.0364 Z M1492,2496.9044 L1492,2490.0599 C1495.7485,2491.0049 1499.7835,2491.5764 1504,2491.6994 L1504,2498.6879 C1499.7565,2498.5559 1495.7125,2497.9304 1492,2496.9044 L1492,2496.9044 Z M1489,2495.9639 C1486.2505,2494.9934 1483.732,2493.7904 1481.5,2492.3984 L1481.5,2486.0549 C1483.786,2487.2879 1486.3015,2488.3484 1489,2489.2079 L1489,2495.9639 Z M1563.9805,2484.4064 C1563.8845,2480.3894 1562.266,2476.4459 1559.2615,2472.9764 C1558.7185,2472.3509 1557.775,2472.2804 1557.1465,2472.8249 C1556.5195,2473.3664 1556.452,2474.3144 1556.995,2474.9399 C1559.653,2478.0089 1561,2481.3224 1561,2484.7889 C1561,2496.4904 1545.424,2506.0109 1526.2795,2506.0109 C1518.6535,2506.0109 1511.4445,2504.4884 1505.461,2501.7119 C1505.548,2501.7119 1505.6335,2501.7164 1505.7205,2501.7164 C1526.509,2501.7164 1542.8575,2491.2359 1543.4155,2477.7284 C1550.326,2473.4159 1554.6685,2467.3514 1554.9715,2460.4994 L1555,2460.4994 L1555,2449.9994 C1555,2436.7664 1538.1775,2425.9994 1517.5,2425.9994 C1496.8225,2425.9994 1480,2436.7664 1480,2449.9994 L1480,2458.9994 C1480,2459.0399 1480.0195,2459.0729 1480.0225,2459.1119 C1480.0195,2459.1509 1480,2459.1839 1480,2459.2229 C1480,2473.0424 1496.626,2484.2939 1517.1355,2484.4259 C1517.2555,2484.4574 1517.371,2484.4994 1517.5,2484.4994 C1517.629,2484.4994 1517.743,2484.4574 1517.863,2484.4274 C1521.6685,2484.4034 1525.324,2484.0299 1528.7545,2483.3429 C1522.477,2486.7749 1514.3545,2488.7264 1505.7205,2488.7264 C1486.576,2488.7264 1471,2479.2074 1471,2467.5044 C1471,2464.5029 1472.0245,2461.5929 1474.0435,2458.8584 C1474.534,2458.1909 1474.393,2457.2519 1473.727,2456.7599 C1473.0595,2456.2679 1472.122,2456.4104 1471.6285,2457.0764 C1469.221,2460.3389 1468,2463.8474 1468,2467.5044 C1468,2467.6709 1468.015,2467.8344 1468.0195,2467.9994 L1468,2467.9994 L1468,2476.9994 L1468.018,2476.9994 C1468.303,2486.8094 1477.0015,2495.2634 1489.489,2499.2594 C1493.305,2510.7434 1508.557,2518.9994 1526.2795,2518.9994 C1526.347,2518.9994 1526.4145,2518.9964 1526.4835,2518.9964 C1526.4895,2518.9964 1526.494,2518.9994 1526.5,2518.9994 C1526.5075,2518.9994 1526.512,2518.9964 1526.5195,2518.9964 C1547.116,2518.9154 1563.301,2508.5429 1563.9685,2495.1584 C1563.9745,2495.1044 1564,2495.0564 1564,2494.9994 L1564,2484.4994 C1564,2484.4664 1563.9835,2484.4394 1563.9805,2484.4064 L1563.9805,2484.4064 Z" id="[autoentry]ico_pricing_gradient"></path>
        </g>
    </g>
</svg>