<?xml version="1.0" encoding="UTF-8"?>
<svg width="97px" height="68px" viewBox="0 0 97 68" version="1.1" xmlns="http://www.w3.org/2000/svg" xmlns:xlink="http://www.w3.org/1999/xlink">
    <!-- Generator: Sketch 45.2 (43514) - http://www.bohemiancoding.com/sketch -->
    <title>[autoentry]ico_auto-publish_gradient</title>
    <desc>Created with Sketch.</desc>
    <defs>
        <linearGradient x1="19.0350244%" y1="76.2152778%" x2="77.5149571%" y2="17.1937004%" id="linearGradient-1">
            <stop stop-color="#1A66FF" offset="0%"></stop>
            <stop stop-color="#EB2150" offset="100%"></stop>
        </linearGradient>
    </defs>
    <g id="assets" stroke="none" stroke-width="1" fill="none" fill-rule="evenodd">
        <g id="Assets" transform="translate(-1445.000000, -2632.000000)" fill="url(#linearGradient-1)">
            <path d="M1538.49565,2632 C1540.03915,2632 1541.50015,2633.281 1541.50015,2634.637 L1541.50015,2685.937 C1541.50015,2687.6365 1540.15165,2689 1538.49565,2689 L1448.50465,2689 C1446.84715,2689 1445.50015,2687.6365 1445.50015,2685.937 L1445.50015,2647 C1445.50015,2646.172 1446.17065,2645.5 1447.00015,2645.5 C1447.82965,2645.5 1448.50015,2646.172 1448.50015,2647 L1448.50015,2685.937 L1538.49565,2686.018 L1538.50015,2635.0705 L1448.50465,2635 L1448.50015,2638.0675 C1448.50015,2638.897 1447.82965,2639.5675 1447.00015,2639.5675 C1446.17065,2639.5675 1445.50015,2638.897 1445.50015,2638.0675 L1445.50015,2635.081 C1445.50015,2633.3815 1446.84715,2632 1448.50465,2632 L1538.49565,2632 Z M1519,2696.5 C1519.8295,2696.5 1520.5,2697.172 1520.5,2698 C1520.5,2698.828 1519.8295,2699.5 1519,2699.5 L1468,2699.5 C1467.1705,2699.5 1466.5,2698.828 1466.5,2698 C1466.5,2697.172 1467.1705,2696.5 1468,2696.5 L1492,2696.5 L1492,2693.5 C1492,2692.672 1492.6705,2692 1493.5,2692 C1494.3295,2692 1495,2692.672 1495,2693.5 L1495,2696.5 L1519,2696.5 Z M1508.5,2660.5 C1508.5,2668.771 1501.771,2675.5 1493.5,2675.5 C1485.229,2675.5 1478.5,2668.771 1478.5,2660.5 C1478.5,2652.229 1485.229,2645.5 1493.5,2645.5 C1501.771,2645.5 1508.5,2652.229 1508.5,2660.5 Z M1481.5,2660.5 C1481.5,2667.1165 1486.8835,2672.5 1493.5,2672.5 C1500.1165,2672.5 1505.5,2667.1165 1505.5,2660.5 C1505.5,2653.8835 1500.1165,2648.5 1493.5,2648.5 C1486.8835,2648.5 1481.5,2653.8835 1481.5,2660.5 Z M1501.16995,2654.8222 C1501.82695,2655.3232 1501.95445,2656.2652 1501.45345,2656.9237 L1493.45395,2667.4237 C1493.19745,2667.7612 1492.80895,2667.9757 1492.38595,2668.0102 C1492.34395,2668.0132 1492.30195,2668.0147 1492.26145,2668.0147 C1491.88195,2668.0147 1491.51445,2667.8707 1491.23545,2667.6097 L1487.23495,2663.8597 C1486.63045,2663.2927 1486.59895,2662.3447 1487.16595,2661.7387 C1487.72995,2661.1342 1488.68245,2661.1027 1489.28545,2661.6712 L1492.07545,2664.2842 L1499.06695,2655.1057 C1499.56945,2654.4472 1500.50695,2654.3197 1501.16995,2654.8222 Z" id="[autoentry]ico_auto-publish_gradient"></path>
        </g>
    </g>
</svg>