<?xml version="1.0" encoding="UTF-8"?>
<svg width="141px" height="19px" viewBox="0 0 141 19" version="1.1" xmlns="http://www.w3.org/2000/svg" xmlns:xlink="http://www.w3.org/1999/xlink">
    <!-- Generator: Sketch 45.2 (43514) - http://www.bohemiancoding.com/sketch -->
    <title>[autoentry]rating_5</title>
    <desc>Created with Sketch.</desc>
    <defs>
        <linearGradient x1="19.0350244%" y1="76.2152778%" x2="81.8250267%" y2="30.6993101%" id="linearGradient-1">
            <stop stop-color="#1A66FF" offset="0%"></stop>
            <stop stop-color="#EB2150" offset="100%"></stop>
        </linearGradient>
    </defs>
    <g id="assets" stroke="none" stroke-width="1" fill="none" fill-rule="evenodd">
        <g id="Assets" transform="translate(-920.000000, -972.000000)" fill="url(#linearGradient-1)">
            <path d="M930.52513,987.771933 L924.34479,991.02113 L925.52513,984.139221 L920.52513,979.265425 L927.43496,978.261368 L930.52513,972 L933.6153,978.261368 L940.52513,979.265425 L935.52513,984.139221 L936.70547,991.02113 L930.52513,987.771933 Z M960.52513,987.771933 L954.34479,991.02113 L955.52513,984.139221 L950.52513,979.265425 L957.43496,978.261368 L960.52513,972 L963.6153,978.261368 L970.52513,979.265425 L965.52513,984.139221 L966.70547,991.02113 L960.52513,987.771933 Z M990.52513,987.771933 L984.34479,991.02113 L985.52513,984.139221 L980.52513,979.265425 L987.43496,978.261368 L990.52513,972 L993.6153,978.261368 L1000.52513,979.265425 L995.52513,984.139221 L996.70547,991.02113 L990.52513,987.771933 Z M1020.52513,987.771933 L1014.34479,991.02113 L1015.52513,984.139221 L1010.52513,979.265425 L1017.43496,978.261368 L1020.52513,972 L1023.6153,978.261368 L1030.52513,979.265425 L1025.52513,984.139221 L1026.70547,991.02113 L1020.52513,987.771933 Z M1050.52513,987.771933 L1044.34479,991.02113 L1045.52513,984.139221 L1040.52513,979.265425 L1047.43496,978.261368 L1050.52513,972 L1053.6153,978.261368 L1060.52513,979.265425 L1055.52513,984.139221 L1056.70547,991.02113 L1050.52513,987.771933 Z" id="[autoentry]rating_5"></path>
        </g>
    </g>
</svg>