<svg xmlns="http://www.w3.org/2000/svg" width="195" height="110" viewBox="0 0 195 110"><ellipse fill-opacity=".2" cx="31.1" cy="33.5" rx="6.7" ry="6.7"/><path d="M31.1 41.2c-4.2 0-7.7-3.5-7.7-7.7s3.5-7.7 7.7-7.7 7.7 3.5 7.7 7.7-3.4 7.7-7.7 7.7zm0-13.4c-3.1 0-5.7 2.6-5.7 5.7s2.6 5.7 5.7 5.7 5.7-2.6 5.7-5.7c0-3.2-2.6-5.7-5.7-5.7zM51.1 66c-2.2 0-4-1.8-4-4s1.8-4 4-4 4 1.8 4 4c.1 2.2-1.7 4-4 4zm0-6.1c-1.1 0-2 .9-2 2s.9 2 2 2 2-.9 2-2-.8-2-2-2z"/><circle fill-opacity=".2" cx="123.8" cy="86.2" r="3"/><path d="M123.8 90.2c-2.2 0-4-1.8-4-4s1.8-4 4-4 4 1.8 4 4-1.8 4-4 4zm0-6c-1.1 0-2 .9-2 2s.9 2 2 2 2-.9 2-2-.9-2-2-2z"/><circle fill="#FFF" fill-opacity=".2" cx="135.9" cy="48" r="2.3"/><path d="M135.9 51.3c-1.8 0-3.3-1.5-3.3-3.3 0-1.8 1.5-3.3 3.3-3.3 1.8 0 3.3 1.5 3.3 3.3.1 1.8-1.4 3.3-3.3 3.3zm0-4.7c-.7 0-1.3.6-1.3 1.3 0 .7.6 1.3 1.3 1.3s1.3-.6 1.3-1.3c.1-.7-.5-1.3-1.3-1.3zM172.3 92.8c-3.7 0-6.6-3-6.6-6.6s3-6.6 6.6-6.6 6.6 3 6.6 6.6-3 6.6-6.6 6.6zm0-11.2c-2.6 0-4.6 2.1-4.6 4.6s2.1 4.6 4.6 4.6 4.6-2.1 4.6-4.6-2.1-4.6-4.6-4.6z"/><path opacity=".2" fill="#071D49" d="M13 93.7V89h8.5"/><path d="M174.1 15.3c-.3-.1-.6-.1-.9-.1-1.3 0-2.4.7-2.9 1.7-1.6.2-2.9 1.4-2.9 3 0 1.7 1.5 3 3.2 3h10.5c1.7 0 3.2-1.3 3.2-3 0-1.4-1-2.6-2.3-3-.2-2.1-2-3.7-4.3-3.7-1.4.1-2.8.9-3.6 2.1zm1.5 1.6c.2-.9 1.2-1.6 2.3-1.6 1.3 0 2.3.9 2.3 2v.4c-.1.3 0 .6.2.9.2.2.5.4.8.4h.1c.7 0 1.2.5 1.2 1s-.5 1-1.2 1h-10.5c-.7 0-1.2-.5-1.2-1s.5-1.1 1.2-1.1c.1 0 .1.1.2.1.3 0 .5 0 .7-.2.2-.2.4-.4.4-.6.1-.5.6-.9 1.2-.9.4 0 .6.1.8.3.3.2.6.2.9.1.3-.2.5-.5.6-.8z"/><path d="M177.4 32.2c3.5-.4 6.7-2.1 8.9-4.9 4.6-5.7 3.6-14-2-18.6-.4-.3-1.1-.3-1.4.2-.3.4-.3 1.1.2 1.4 4.8 3.9 5.6 10.9 1.7 15.8-1.9 2.3-4.5 3.8-7.5 4.1-3 .3-5.9-.5-8.2-2.4-4.8-3.9-5.6-10.9-1.7-15.8 1.9-2.3 4.5-3.8 7.5-4.1.5-.1.9-.6.9-1.1-.1-.5-.5-.9-1.1-.9-3.5.4-6.7 2.1-8.9 4.9-4.6 5.7-3.6 14 2 18.6 2.4 1.9 5.2 2.9 8.2 2.9.5-.1.9-.1 1.4-.1z"/><path d="M192.9 10.4c-2.3-4.5-6.2-7.9-11.1-9.5-4.8-1.6-10-1.2-14.5 1.1-9.1 4.6-12.8 15.6-8.7 24.8l-31.1 14.6c-.5.2-.7.8-.5 1.3.2.4.5.6.9.6.1 0 .3 0 .4-.1l32-15c.4-.2.6-.6.5-1.1V27v-.2-.1c-4.3-8.4-.9-18.6 7.4-22.9 4.1-2.1 8.7-2.4 13-1 4.3 1.4 7.8 4.4 9.9 8.5 4.3 8.4.9 18.6-7.4 22.9-4.1 2.1-8.7 2.4-13 1-.5-.2-1.1.1-1.3.6-.2.5.1 1.1.6 1.3 1.9.6 3.9.9 5.9.9 3 0 5.9-.7 8.6-2.1 9.5-4.7 13.2-16.2 8.4-25.5zM110.3 42.7c.4-.4.4-1 0-1.4-3.9-3.9-9.1-6-14.5-6-11.3 0-20.6 9.2-20.6 20.6s9.2 20.6 20.6 20.6 20.6-9.2 20.6-20.6c0-.6-.4-1-1-1s-1 .4-1 1c0 10.2-8.3 18.6-18.6 18.6s-18.6-8.3-18.6-18.6 8.3-18.6 18.6-18.6c5 0 9.6 1.9 13.1 5.4.4.4 1.1.4 1.4 0z"/><path d="M104.3 27.2c-7.7-2.3-15.7-1.4-22.7 2.4S69.5 39.7 67.2 47.4c-.2.5.1 1.1.7 1.2.5.2 1.1-.1 1.2-.7 2.1-7.2 6.9-13.1 13.4-16.6 6.5-3.6 14.1-4.4 21.2-2.3 14.8 4.4 23.2 19.9 18.9 34.7-2.1 7.2-6.9 13.1-13.4 16.6-6.5 3.6-14.1 4.4-21.2 2.3-7.3-2.2-14.5-8.3-17-14.7 0-.1-.1-.1-.1-.2l-.1-.1c-.1-.1-.1-.1-.2-.1l-.1-.1h-.8L32.4 84.1c-2.2-3.6-5.8-6.5-10-7.8-4.4-1.4-9.1-1-13.2 1.2-4.1 2.1-7.1 5.7-8.5 10.1-2.9 9.1 2.2 18.8 11.3 21.7 1.7.5 3.5.8 5.2.8 2.7 0 5.4-.7 7.9-2 4.1-2.1 7.1-5.7 8.5-10.1.2-.5-.1-1.1-.7-1.3-.5-.2-1.1.1-1.3.7-1.2 3.9-3.9 7.1-7.5 8.9-3.6 1.9-7.7 2.2-11.6 1-8-2.5-12.5-11.1-10-19.1 1.2-3.9 3.9-7.1 7.5-8.9 3.6-1.9 7.7-2.2 11.6-1 4 1.3 7.4 4.1 9.3 7.6 0 .1.1.2.2.2 0 0 .1 0 .1.1.1.1.2.1.3.1h.6l37.1-16.6c3.1 6.5 10.4 12.7 17.9 14.9 2.8.8 5.7 1.2 8.5 1.2 4.9 0 9.8-1.2 14.3-3.7 7-3.8 12.1-10.1 14.4-17.8 4.9-15.8-4.2-32.4-20-37.1z"/><path d="M91.9 56.2c-.4-.4-1-.4-1.4 0-.4.4-.4 1 0 1.4l2.8 2.7c.2.2.4.3.7.3h.1c.3 0 .5-.2.7-.4l5.6-7.5c.3-.4.2-1.1-.2-1.4-.4-.3-1.1-.2-1.4.2l-4.9 6.6-2-1.9z"/><path d="M84.6 55.9c0 6.2 5 11.3 11.3 11.3s11.3-5.1 11.3-11.3-5-11.3-11.3-11.3-11.3 5.1-11.3 11.3zm20.5 0c0 5.1-4.1 9.3-9.3 9.3s-9.3-4.2-9.3-9.3 4.1-9.3 9.3-9.3 9.3 4.2 9.3 9.3zM8.4 97.4c-.3-.5-.9-.7-1.3-.4-.5.3-.7.9-.4 1.3 1.5 2.8 4 4.9 7 5.9 1.2.4 2.4.6 3.6.6 1.9 0 3.8-.5 5.5-1.4 2.8-1.5 4.9-4 5.9-7 2-6.3-1.5-13.1-7.8-15.1-3.1-1-6.3-.7-9.2.8-2.8 1.5-4.9 4-5.9 7-.2.5.1 1.1.7 1.3.5.2 1.1-.1 1.3-.7.8-2.6 2.6-4.6 4.9-5.9 2.4-1.2 5.1-1.5 7.6-.7 5.3 1.7 8.2 7.3 6.5 12.6-.8 2.6-2.6 4.6-4.9 5.9-2.4 1.2-5.1 1.5-7.6.7-2.6-.8-4.7-2.6-5.9-4.9z"/><path d="M23 89c0-1.1-.9-2-2-2h-7c-1.1 0-2 .9-2 2v4c0 1.1.9 2 2 2h7c1.1 0 2-.9 2-2v-4zm-9 4v-4h7v4h-7zM19.9 96H15c-.6 0-1.1.4-1.1 1s.5 1 1.1 1h4.9c.6 0 1.1-.4 1.1-1s-.5-1-1.1-1z"/></svg>