<?xml version="1.0" encoding="UTF-8"?>
<svg width="64px" height="44px" viewBox="0 0 64 44" version="1.1" xmlns="http://www.w3.org/2000/svg" xmlns:xlink="http://www.w3.org/1999/xlink">
    <!-- Generator: Sketch 45.2 (43514) - http://www.bohemiancoding.com/sketch -->
    <title>[autoentry]ico_quote_gradient</title>
    <desc>Created with Sketch.</desc>
    <defs>
        <linearGradient x1="36.3072316%" y1="56.5736943%" x2="63.2509595%" y2="36.2830681%" id="linearGradient-1">
            <stop stop-color="#1A66FF" offset="0%"></stop>
            <stop stop-color="#EB2150" offset="100%"></stop>
        </linearGradient>
    </defs>
    <g id="assets" stroke="none" stroke-width="1" fill="none" fill-rule="evenodd">
        <g id="Assets" transform="translate(-495.000000, -2777.000000)" fill="url(#linearGradient-1)">
            <path d="M546.8257,2779 C546.5327,2779 546.2377,2779.101 545.9497,2779.3 C537.2567,2785.301 531.2987,2794.138 530.3987,2802.362 C529.8637,2807.258 531.1337,2811.517 534.0717,2814.678 C536.5907,2817.389 540.1817,2818.943 543.9257,2818.943 C547.4157,2818.943 550.6647,2817.617 553.0737,2815.21 C555.7877,2812.499 557.1777,2808.908 556.9847,2805.1 C556.7967,2801.346 555.0247,2797.837 552.1267,2795.472 C550.4317,2794.09 548.2937,2793.114 546.1027,2792.722 C544.3277,2792.404 542.6137,2792.499 541.1917,2792.995 C540.8077,2793.128 540.3777,2793.016 540.1097,2792.709 C539.8417,2792.401 539.7867,2791.961 539.9717,2791.598 C541.2577,2789.068 543.6637,2785.282 547.8247,2781.613 C548.4567,2781.057 548.4087,2780.463 548.2577,2780.062 C548.0247,2779.447 547.4227,2779 546.8257,2779 M543.9257,2820.943 C539.6287,2820.943 535.5027,2819.156 532.6067,2816.04 C529.2617,2812.44 527.8097,2807.636 528.4107,2802.145 C529.3857,2793.227 535.5167,2784.071 544.8127,2777.654 C545.4327,2777.226 546.1287,2777 546.8257,2777 C548.2687,2777 549.5967,2777.947 550.1287,2779.356 C550.6417,2780.715 550.2747,2782.12 549.1467,2783.114 C546.1677,2785.741 544.1457,2788.423 542.8167,2790.603 C543.9687,2790.478 545.2077,2790.53 546.4547,2790.753 C548.9737,2791.204 551.4377,2792.329 553.3897,2793.922 C556.7267,2796.644 558.7647,2800.682 558.9827,2804.999 C559.2037,2809.38 557.6067,2813.508 554.4877,2816.625 C551.7007,2819.41 547.9487,2820.943 543.9257,2820.943 M513.5474,2779 C513.2544,2779 512.9594,2779.101 512.6714,2779.3 C503.9784,2785.301 498.0204,2794.138 497.1204,2802.362 C496.5854,2807.258 497.8554,2811.517 500.7934,2814.678 C503.3124,2817.389 506.9034,2818.943 510.6474,2818.943 C514.1374,2818.943 517.3864,2817.617 519.7954,2815.21 C522.5104,2812.498 523.8994,2808.907 523.7074,2805.099 C523.5184,2801.346 521.7464,2797.837 518.8484,2795.472 C517.1534,2794.09 515.0154,2793.114 512.8244,2792.722 C511.0484,2792.404 509.3354,2792.499 507.9154,2792.995 C507.5274,2793.13 507.1014,2793.016 506.8324,2792.709 C506.5644,2792.402 506.5094,2791.962 506.6934,2791.598 C507.9784,2789.069 510.3824,2785.284 514.5464,2781.613 C515.1784,2781.057 515.1304,2780.463 514.9794,2780.062 C514.7464,2779.447 514.1444,2779 513.5474,2779 M510.6474,2820.943 C506.3504,2820.943 502.2244,2819.156 499.3284,2816.04 C495.9834,2812.44 494.5314,2807.636 495.1324,2802.145 C496.1074,2793.227 502.2384,2784.071 511.5344,2777.654 C512.1544,2777.226 512.8504,2777 513.5474,2777 C514.9904,2777 516.3184,2777.947 516.8504,2779.356 C517.3634,2780.715 516.9964,2782.12 515.8684,2783.114 C512.8874,2785.742 510.8664,2788.424 509.5394,2790.603 C510.6884,2790.478 511.9294,2790.53 513.1764,2790.753 C515.6954,2791.204 518.1594,2792.329 520.1114,2793.922 C523.4484,2796.644 525.4864,2800.681 525.7044,2804.998 C525.9254,2809.379 524.3284,2813.508 521.2094,2816.625 C518.4224,2819.41 514.6704,2820.943 510.6474,2820.943" id="[autoentry]ico_quote_gradient"></path>
        </g>
    </g>
</svg>