<svg xmlns="http://www.w3.org/2000/svg" width="194" height="110" viewBox="0 0 194 110"><path opacity=".2" fill="#071D49" d="M139.7 67h38v4.1h-38z"/><path d="M128 66h-4c-.6 0-1 .4-1 1s.4 1 1 1h4c.6 0 1-.4 1-1s-.4-1-1-1zM140 64c.6 0 1-.4 1-1V48h36v15c0 .6.4 1 1 1s1-.4 1-1V48c0-1.1-.9-2-2-2h-36c-1.1 0-2 .9-2 2v15c0 .6.4 1 1 1z"/><path d="M146 54h11c.6 0 1-.4 1-1s-.4-1-1-1h-11c-.6 0-1 .4-1 1s.4 1 1 1zM146 64h22c.6 0 1-.4 1-1s-.4-1-1-1h-22c-.6 0-1 .4-1 1s.4 1 1 1zM146 72h16c.6 0 1-.4 1-1s-.4-1-1-1h-16c-.6 0-1 .4-1 1s.4 1 1 1zM146 78h11c.6 0 1-.4 1-1s-.4-1-1-1h-11c-.6 0-1 .4-1 1s.4 1 1 1zM146 84h6c.6 0 1-.4 1-1s-.4-1-1-1h-6c-.6 0-1 .4-1 1s.4 1 1 1z"/><path d="M185 66h-53c-.6 0-1 .4-1 1s.4 1 1 1h7v40c0 1.1.9 2 2 2h36c1.1 0 2-.9 2-2V68h6c.6 0 1-.4 1-1s-.4-1-1-1zm-8 42h-36v-1h36v1zm0-3h-36v-1h36v1zm0-3h-36V68h36v34zM193 66h-4c-.6 0-1 .4-1 1s.4 1 1 1h4c.6 0 1-.4 1-1s-.4-1-1-1z"/><circle cx="146" cy="95.5" r="1"/><g><path d="M112 46H82c-1.1 0-2 .9-2 2v10.1c-.6 0-1 .4-1 1v3c0 .6.4 1 1 1v2c-.6 0-1 .4-1 1v3c0 .6.4 1 1 1V108c0 1.1.9 2 2 2h30c1.1 0 2-.9 2-2V48c0-1.1-.9-2-2-2zm0 62H82V96.1h30V108zM82 94.1v-38h25c.6 0 1-.4 1-1s-.4-1-1-1H82V48h30v46.1H82z"/><path d="M99 50.1h-8c-.6 0-1 .4-1 1s.4 1 1 1h8c.6 0 1-.4 1-1s-.4-1-1-1z"/><circle cx="103" cy="51" r="1"/><path d="M97 106c2.2 0 4-1.8 4-4s-1.8-4-4-4-4 1.8-4 4 1.8 4 4 4zm0-6c1.1 0 2 .9 2 2s-.9 2-2 2-2-.9-2-2 .9-2 2-2z"/><path opacity=".2" fill="#071D49" d="M81.3 55.1h25.8L81.3 95.5"/><path d="M88.9 68.9c-.6 0-1-.4-1-1V64c0-.6.4-1 1-1h4c.6 0 1 .4 1 1s-.4 1-1 1h-3v2.9c0 .5-.4 1-1 1zM91.9 87.1h-4c-.6 0-1-.4-1-1v-4c0-.6.4-1 1-1s1 .4 1 1v3h3c.6 0 1 .4 1 1s-.4 1-1 1zM105.1 87.1H101c-.6 0-1-.4-1-1s.4-1 1-1h3.1v-3c0-.6.4-1 1-1s1 .4 1 1v4c0 .5-.4 1-1 1zM105.1 68.9c-.6 0-1-.4-1-1V65H101c-.6 0-1-.4-1-1s.4-1 1-1h4.1c.6 0 1 .4 1 1v3.9c0 .5-.4 1-1 1z"/></g><g><path d="M17 70h16c.6 0 1-.4 1-1s-.4-1-1-1H17c-.6 0-1 .4-1 1s.4 1 1 1zM17 54h11c.6 0 1-.4 1-1s-.4-1-1-1H17c-.6 0-1 .4-1 1s.4 1 1 1zM17 64h22c.6 0 1-.4 1-1s-.4-1-1-1H17c-.6 0-1 .4-1 1s.4 1 1 1zM17 76h11c.6 0 1-.4 1-1s-.4-1-1-1H17c-.6 0-1 .4-1 1s.4 1 1 1zM17 82h6c.6 0 1-.4 1-1s-.4-1-1-1h-6c-.6 0-1 .4-1 1s.4 1 1 1z"/><path d="M59.5 77.6c-.1-.1-.2-.1-.3-.1L50 72.6V48c0-1.1-1.2-2-2.3-2h-36c-1.1 0-1.7.9-1.7 2v24.6L.8 77.4c-.1 0-.2.1-.3.1-.3.2-.5.6-.5.9v29.3c0 .6 0 1.3.5 1.8.2.2.6.4 1.1.4h56.2c1.2 0 2.2-1.1 2.2-2.3V78.4c0-.3-.2-.7-.5-.8zM50 79v-4.1l6.8 3.5L50 82l-2 1-18 9.4L12 83V48h36v31c0 .7.8 1.2 1.4.9.4-.2.6-.5.6-.9zm-40 3l-6.8-3.6 6.8-3.5V82zm48 25.7c0 .1-.2.3-.2.3H2V80.1l27.5 14.4c.3.2.6.2.9 0L58 80.1v27.6z"/></g><path opacity=".2" fill="#071D49" d="M35.7 90l-6 3.6-19-10.6M10.7 73v10l-10-5"/><path d="M81 18H1c-.6 0-1-.4-1-1s.4-1 1-1h79c.5-8.9 8-16 17-16 7.4 0 13.9 4.7 16.2 11.7.2.5-.1 1.1-.6 1.3-.5.2-1.1-.1-1.3-.6C109.2 6.1 103.5 2 97 2c-8.3 0-15 6.7-15 15 0 .6-.4 1-1 1zM97.2 34c-7.4 0-13.9-4.7-16.2-11.7-.2-.5.1-1.1.6-1.3.5-.2 1.1.1 1.3.6 2 6.2 7.8 10.3 14.3 10.3 8.4 0 15.1-6.6 15.1-15 0-.6.4-1 1-1H193c.6 0 1 .4 1 1s-.4 1-1 1h-78.8c-.5 9.1-7.8 16.1-17 16.1z"/><path d="M101.7 15.3l-4-4c-.1-.1-.2-.2-.3-.2-.2-.1-.5-.1-.8 0-.1.1-.2.1-.3.2l-4 4c-.4.4-.4 1 0 1.4s1 .4 1.4 0l2.3-2.3V22c0 .6.4 1 1 1s1-.4 1-1v-7.6l2.3 2.3c.2.2.5.3.7.3s.5-.1.7-.3c.4-.4.4-1 0-1.4z"/></svg>