<svg xmlns="http://www.w3.org/2000/svg" width="195" height="110" viewBox="0 0 195 110"><path opacity=".2" fill="#071D49" d="M97.8 47c-8 0-14.5-6.5-14.5-14.5 0-.5 0-.9.1-1.4C81.9 33 81 35.4 81 38c0 6.2 5 11.3 11.3 11.3 2.6 0 5-.9 6.9-2.4-.5 0-1 .1-1.4.1z"/><path d="M7 32h8c.6 0 1-.4 1-1s-.4-1-1-1H7c-.6 0-1 .4-1 1s.4 1 1 1zM21 36H7c-.6 0-1 .4-1 1s.4 1 1 1h14c.6 0 1-.4 1-1s-.4-1-1-1zM17 42H7c-.6 0-1 .4-1 1s.4 1 1 1h10c.6 0 1-.4 1-1s-.4-1-1-1zM12 48H7c-.6 0-1 .4-1 1s.4 1 1 1h5c.6 0 1-.4 1-1s-.4-1-1-1zM92.3 29.4c-.6 0-1 .4-1 1s.4 1 1 1c3.6 0 6.6 3 6.6 6.6 0 .6.4 1 1 1s1-.4 1-1c0-4.8-3.9-8.6-8.6-8.6z"/><path d="M104.5 46.5c-.4-.4-1-.4-1.4 0l-.5.5-1-1c1.8-2.1 3-4.9 3-8 0-6.8-5.5-12.3-12.3-12.3S80 31.2 80 38s5.5 12.3 12.3 12.3c3 0 5.8-1.1 7.9-2.9l1 1-.5.5c-.2.2-.3.4-.3.7s.1.5.3.7l9.3 9.2c.2.2.5.3.7.3s.5-.1.7-.3l2.4-2.3c.2-.2.3-.4.3-.7s-.1-.5-.3-.7l-9.3-9.3zm-12.2 1.7C86.6 48.2 82 43.6 82 38c0-5.7 4.6-10.3 10.3-10.3 5.7 0 10.3 4.6 10.3 10.3 0 5.6-4.7 10.2-10.3 10.2zm18.3 9.2l-7.8-7.8.9-.9 7.8 7.8-.9.9z"/><circle cx="54.5" cy="76.5" r="1.5"/><circle cx="60.5" cy="76.5" r="1.5"/><circle cx="66.5" cy="76.5" r="1.5"/><path d="M27 23H2c-1.1 0-2 .9-2 2v37c0 1.1.9 2 2 2h25c1.1 0 2-.9 2-2V25c0-1.1-.9-2-2-2zM2 62V25h25v37H2zM193 23h-25c-1.1 0-2 .9-2 2v37c0 1.1.9 2 2 2h25c1.1 0 2-.9 2-2V25c0-1.1-.9-2-2-2zm-25 39V25h25v37h-25zM155 23h-9V4c0-1.1-.9-2-2-2h-7c0-1.1-.9-2-2-2h-8c-1.1 0-2 .9-2 2h-2c0-1.1-.9-2-2-2h-8c-1.1 0-2 .9-2 2H50c-1.1 0-2 .9-2 2v19h-9c-1.1 0-2 .9-2 2v37c0 1.1.9 2 2 2h9v17c0 1.1.9 2 2 2h12v25h-3c-.6 0-1 .4-1 1s.4 1 1 1h8c.6 0 1-.4 1-1s-.4-1-1-1h-3V83h66v25h-3c-.6 0-1 .4-1 1s.4 1 1 1h8c.6 0 1-.4 1-1s-.4-1-1-1h-3V83h12c1.1 0 2-.9 2-2V64h9c1.1 0 2-.9 2-2V25c0-1.1-.9-2-2-2zM39 62V25h9v5h-4c-.6 0-1 .4-1 1s.4 1 1 1h4v4h-4c-.6 0-1 .4-1 1s.4 1 1 1h4v4h-4c-.6 0-1 .4-1 1s.4 1 1 1h4v4h-4c-.6 0-1 .4-1 1s.4 1 1 1h4v12h-9zm11 19V4h94v77H50zm105-19h-9V25h9v37z"/><path d="M187.2 36.4l-9.3 13-4.2-4.2c-.4-.4-1-.4-1.4 0s-.4 1 0 1.4l5 5c.2.2.4.3.7.3h.1c.3 0 .6-.2.7-.4l10-14c.3-.4.2-1.1-.2-1.4-.5-.2-1.1-.1-1.4.3z"/><path opacity=".2" fill="#071D49" d="M45 25h3.1v39H45zM145 25h4v39h-4zM144 71c0 10.1-94 10-94 10h94V71z"/></svg>